<svg width="93" height="93" viewBox="0 0 93 93" fill="none" xmlns="http://www.w3.org/2000/svg">
<g clip-path="url(#clip0_1930_934)">
<path d="M76.9291 0H16.0709C7.19519 0 0 7.19519 0 16.0709V76.9291C0 85.8048 7.19519 93 16.0709 93H76.9291C85.8048 93 93 85.8048 93 76.9291V16.0709C93 7.19519 85.8048 0 76.9291 0Z" fill="url(#paint0_linear_1930_934)"/>
<path opacity="0.7" d="M73.2598 32.6223L48.2798 43.9132V16.4136C59.1642 17.0466 68.4978 23.4567 73.2598 32.6223V32.6223Z" fill="#F2F2F2"/>
<path opacity="0.9" d="M68.0254 67.5946C65.9923 69.6484 61.8357 73.2969 55.4807 75.2783C52.6442 76.1627 49.6278 76.6389 46.5002 76.6389C29.8549 76.6389 16.3613 63.1453 16.3613 46.5C16.3613 29.8547 28.9645 17.2704 44.8357 16.4067V47.3628C45.0329 47.535 45.2292 47.7064 45.4264 47.8786L45.4419 47.8915C45.4419 47.8915 45.5478 47.9845 45.5496 47.9863C45.5668 48.0018 46.0748 48.4444 46.7525 49.0351C48.1449 50.2501 50.2564 52.0929 50.3098 52.1394C52.0837 53.6868 53.8575 55.2342 55.6314 56.7817C59.7622 60.3854 63.8938 63.99 68.0254 67.5946V67.5946Z" fill="#F2F2F2"/>
<path opacity="0.4" d="M70.2932 65.0018L49.7109 47.0459L74.6702 35.7645C75.9421 39.0996 76.6387 42.718 76.6387 46.5C76.6387 53.4741 74.2698 59.8946 70.2932 65.0018Z" fill="#F2F2F2"/>
</g>
<defs>
<linearGradient id="paint0_linear_1930_934" x1="-3.41861" y1="17.6795" x2="96.4186" y2="75.3205" gradientUnits="userSpaceOnUse">
<stop stop-color="#3597D0"/>
<stop offset="1" stop-color="#0A69AC"/>
</linearGradient>
<clipPath id="clip0_1930_934">
<rect width="93" height="93" fill="white"/>
</clipPath>
</defs>
</svg>
