<svg width="131" height="131" viewBox="0 0 131 131" fill="none" xmlns="http://www.w3.org/2000/svg">
<circle cx="65.5" cy="65.5" r="65.5" fill="url(#paint0_radial_2966_125)"/>
<circle cx="65.5" cy="65.5" r="65.5" fill="url(#paint1_radial_2966_125)"/>
<path d="M66.503 29C56.3187 29 55.0406 29.0445 51.0406 29.2266C47.0484 29.4094 44.3234 30.0414 41.939 30.9687C39.4726 31.9266 37.3804 33.2078 35.2961 35.293C33.2101 37.3773 31.9289 39.4695 30.968 41.9351C30.0383 44.3203 29.4055 47.046 29.2258 51.0367C29.0469 55.0366 29 56.3155 29 66.4999C29 76.6842 29.0453 77.9585 29.2266 81.9584C29.4102 85.9506 30.0422 88.6756 30.9687 91.06C31.9273 93.5264 33.2086 95.6186 35.2937 97.7029C37.3773 99.7889 39.4695 101.073 41.9343 102.031C44.3203 102.958 47.046 103.59 51.0374 103.773C55.0374 103.955 56.3148 104 66.4983 104C76.6835 104 77.9577 103.955 81.9577 103.773C85.9498 103.59 88.678 102.958 91.0639 102.031C93.5295 101.073 95.6186 99.7889 97.7021 97.7029C99.7881 95.6186 101.069 93.5264 102.03 91.0608C102.952 88.6756 103.585 85.9498 103.772 81.9592C103.952 77.9592 103.999 76.6842 103.999 66.4999C103.999 56.3155 103.952 55.0374 103.772 51.0374C103.585 47.0453 102.952 44.3203 102.03 41.9359C101.069 39.4695 99.7881 37.3773 97.7021 35.293C95.6162 33.207 93.5303 31.9258 91.0615 30.9687C88.6709 30.0414 85.9444 29.4094 81.9522 29.2266C77.9522 29.0445 76.6788 29 66.4913 29H66.503ZM63.139 35.7578C64.1374 35.7562 65.2515 35.7578 66.503 35.7578C76.5155 35.7578 77.7022 35.7937 81.6561 35.9734C85.3123 36.1406 87.2967 36.7515 88.6186 37.2648C90.3686 37.9445 91.6162 38.757 92.9279 40.0695C94.2404 41.382 95.0529 42.632 95.7342 44.382C96.2475 45.7023 96.8592 47.6867 97.0256 51.3429C97.2053 55.296 97.2443 56.4835 97.2443 66.4913C97.2443 76.4991 97.2053 77.6866 97.0256 81.6397C96.8584 85.2959 96.2475 87.2803 95.7342 88.6006C95.0545 90.3506 94.2404 91.5967 92.9279 92.9084C91.6154 94.2209 90.3694 95.0334 88.6186 95.7131C87.2983 96.2287 85.3123 96.8381 81.6561 97.0053C77.703 97.185 76.5155 97.224 66.503 97.224C56.4898 97.224 55.3031 97.185 51.3499 97.0053C47.6937 96.8365 45.7093 96.2256 44.3867 95.7123C42.6367 95.0326 41.3867 94.2201 40.0742 92.9076C38.7617 91.5951 37.9492 90.3483 37.2679 88.5975C36.7547 87.2772 36.1429 85.2928 35.9765 81.6366C35.7969 77.6834 35.7609 76.496 35.7609 66.4819C35.7609 56.4679 35.7969 55.2866 35.9765 51.3335C36.1437 47.6773 36.7547 45.6929 37.2679 44.371C37.9476 42.6211 38.7617 41.3711 40.0742 40.0586C41.3867 38.7461 42.6367 37.9336 44.3867 37.2523C45.7085 36.7367 47.6937 36.1273 51.3499 35.9594C54.8093 35.8031 56.1499 35.7562 63.139 35.7484V35.7578ZM86.5201 41.9843C84.0358 41.9843 82.0202 43.9976 82.0202 46.4828C82.0202 48.9671 84.0358 50.9827 86.5201 50.9827C89.0045 50.9827 91.0201 48.9671 91.0201 46.4828C91.0201 43.9984 89.0045 41.9828 86.5201 41.9828V41.9843ZM66.503 47.2421C55.8679 47.2421 47.2453 55.8648 47.2453 66.4999C47.2453 77.135 55.8679 85.7537 66.503 85.7537C77.1381 85.7537 85.7576 77.135 85.7576 66.4999C85.7576 55.8648 77.1381 47.2421 66.503 47.2421ZM66.503 53.9999C73.4061 53.9999 79.003 59.596 79.003 66.4999C79.003 73.403 73.4061 78.9999 66.503 78.9999C59.5991 78.9999 54.0031 73.403 54.0031 66.4999C54.0031 59.596 59.5991 53.9999 66.503 53.9999Z" fill="white"/>
<defs>
<radialGradient id="paint0_radial_2966_125" cx="0" cy="0" r="1" gradientUnits="userSpaceOnUse" gradientTransform="translate(34.797 141.09) rotate(-90) scale(129.831 120.753)">
<stop stop-color="#FFDD55"/>
<stop offset="0.1" stop-color="#FFDD55"/>
<stop offset="0.5" stop-color="#FF543E"/>
<stop offset="1" stop-color="#C837AB"/>
</radialGradient>
<radialGradient id="paint1_radial_2966_125" cx="0" cy="0" r="1" gradientUnits="userSpaceOnUse" gradientTransform="translate(-21.9432 9.43702) rotate(78.6806) scale(58.0348 239.222)">
<stop stop-color="#3771C8"/>
<stop offset="0.128" stop-color="#3771C8"/>
<stop offset="1" stop-color="#6600FF" stop-opacity="0"/>
</radialGradient>
</defs>
</svg>
