<svg viewBox="0 0 500 500" xmlns="http://www.w3.org/2000/svg">
  <defs></defs>
  <path style="fill: rgb(5, 5, 5);" d="M 249.8 24.555 L 249.791 24.555 L 249.782 24.555 C 231.02 24.561 212.743 28.331 195.461 35.761 C 178.872 42.892 163.942 53.06 151.086 65.983 C 138.247 78.889 128.143 93.872 121.055 110.516 C 113.685 127.823 109.937 146.115 109.914 164.884 C 109.903 174.099 109.712 183.042 109.344 191.606 L 102.018 189.888 C 99.33 189.258 96.566 188.938 93.805 188.937 C 85.832 188.936 77.967 191.631 71.659 196.525 C 65.078 201.631 60.463 208.902 58.666 216.999 C 54.389 236.272 65.031 255.729 83.473 262.571 L 105.41 271.426 C 90.884 316.012 64.099 324.556 46.062 330.311 C 41.276 331.838 37.142 333.157 33.206 335.11 C 17.523 342.894 15.83 356.081 15.83 361.389 C 15.83 371.556 20.642 380.834 29.381 387.513 C 33.732 390.839 39.122 393.583 45.858 395.902 C 55.039 399.063 65.682 401.069 74.332 402.677 C 74.75 405.882 75.363 409.325 76.396 412.795 C 80.685 427.206 89.736 433.659 96.574 436.534 C 103.062 439.263 109.766 439.578 114.244 439.578 C 118.624 439.578 123.254 439.235 128.156 438.872 C 133.415 438.482 138.853 438.08 144.218 438.08 C 152.532 438.08 158.721 439.072 163.138 441.112 C 169.203 443.914 175.635 447.692 182.445 451.691 C 201.403 462.825 222.89 475.445 250 475.445 C 277.11 475.445 298.596 462.825 317.554 451.691 C 324.364 447.691 330.796 443.914 336.862 441.112 C 341.279 439.071 347.468 438.08 355.782 438.08 C 361.147 438.08 366.585 438.483 371.843 438.872 C 376.745 439.235 381.375 439.578 385.755 439.578 C 390.233 439.578 396.936 439.263 403.425 436.534 C 410.263 433.659 419.314 427.206 423.603 412.795 C 424.636 409.325 425.25 405.882 425.667 402.677 C 434.317 401.068 444.961 399.063 454.141 395.902 C 460.878 393.583 466.267 390.839 470.618 387.513 C 479.356 380.834 484.169 371.556 484.169 361.389 C 484.169 356.081 482.476 342.894 466.791 335.111 C 462.855 333.158 458.721 331.839 453.935 330.312 C 435.898 324.558 409.113 316.013 394.587 271.427 L 416.523 262.572 C 434.965 255.73 445.608 236.272 441.331 216.999 C 439.534 208.902 434.919 201.631 428.338 196.525 C 422.03 191.632 414.167 188.937 406.196 188.937 C 403.435 188.937 400.671 189.257 397.981 189.887 L 390.654 191.605 C 390.286 183.042 390.095 174.099 390.084 164.883 C 390.061 146.099 386.283 127.789 378.854 110.459 C 371.723 93.823 361.564 78.844 348.66 65.937 C 335.757 53.031 320.785 42.874 304.162 35.749 C 286.847 28.328 268.557 24.562 249.8 24.555 Z"></path>
  <path style="fill: rgb(255,255,255);" d="M 249.792 49.555 C 312.649 49.576 365.008 101.906 365.084 164.915 C 365.102 179.673 365.557 193.263 366.39 205.782 C 366.904 213.506 373.328 219.23 380.695 219.23 C 381.78 219.23 382.885 219.106 383.995 218.846 L 403.686 214.23 C 404.524 214.033 405.365 213.939 406.196 213.939 C 411.197 213.939 415.802 217.356 416.925 222.417 C 418.512 229.569 414.505 236.795 407.575 239.225 L 377.685 251.291 C 370.139 254.337 366.086 262.55 368.211 270.406 C 392.191 359.06 459.17 349.84 459.17 361.39 C 459.17 375.894 408.685 377.942 404.124 382.504 C 399.563 387.066 403.926 409.205 393.735 413.491 C 391.814 414.299 389.085 414.58 385.756 414.58 C 378.08 414.58 367.224 413.082 355.782 413.082 C 345.857 413.082 335.491 414.209 326.378 418.419 C 302.202 429.587 278.894 450.447 250 450.447 C 221.106 450.447 197.798 429.587 173.622 418.419 C 164.507 414.208 154.144 413.082 144.218 413.082 C 132.777 413.082 121.919 414.58 114.244 414.58 C 110.917 414.58 108.185 414.298 106.265 413.491 C 96.074 409.205 100.437 387.066 95.876 382.504 C 91.315 377.942 40.83 375.893 40.83 361.389 C 40.83 349.838 107.809 359.058 131.789 270.405 C 133.914 262.55 129.861 254.337 122.314 251.29 L 92.424 239.224 C 85.493 236.794 81.486 229.568 83.074 222.416 C 84.197 217.354 88.802 213.937 93.803 213.938 C 94.633 213.938 95.475 214.032 96.313 214.229 L 116.004 218.845 C 117.114 219.105 118.219 219.229 119.304 219.229 C 126.67 219.229 133.095 213.504 133.609 205.781 C 134.442 193.262 134.898 179.672 134.916 164.914 C 134.992 101.906 186.934 49.577 249.792 49.555"></path>
</svg>