<svg width="20" height="20" viewBox="0 0 20 20" fill="none" xmlns="http://www.w3.org/2000/svg">
<circle cx="10" cy="10" r="10" fill="#4B6EEB"/>
<path d="M9.52447 6.46352C9.67415 6.00287 10.3259 6.00287 10.4755 6.46353L11.0103 8.10942C11.0773 8.31543 11.2692 8.45492 11.4858 8.45492H13.2164C13.7008 8.45492 13.9022 9.07472 13.5103 9.35942L12.1102 10.3766C11.935 10.504 11.8617 10.7297 11.9286 10.9357L12.4634 12.5816C12.6131 13.0422 12.0858 13.4253 11.694 13.1406L10.2939 12.1234C10.1186 11.996 9.88135 11.996 9.70611 12.1234L8.30602 13.1406C7.91417 13.4253 7.38693 13.0422 7.5366 12.5816L8.07139 10.9357C8.13832 10.7297 8.06499 10.504 7.88975 10.3766L6.48967 9.35942C6.09781 9.07472 6.2992 8.45492 6.78356 8.45492H8.51416C8.73077 8.45492 8.92275 8.31543 8.98969 8.10942L9.52447 6.46352Z" fill="white"/>
</svg>
